<svg width="124" height="17" fill="none" xmlns="http://www.w3.org/2000/svg"><path d="M3.533 10.328h2.6L9.023 16h3.673L9.431 9.845c1.783-.699 2.814-2.417 2.814-4.405 0-3.06-2.04-4.94-5.607-4.94H.289V16h3.244v-5.672zm0-7.294h2.761c1.611 0 2.621.967 2.621 2.47 0 1.537-.956 2.472-2.589 2.472H3.533V3.034zm18.1 9.443c-.29.88-1.17 1.45-2.32 1.45-1.6 0-2.642-1.128-2.642-2.772v-.193h7.938v-.956c0-3.502-2.116-5.769-5.467-5.769-3.406 0-5.554 2.385-5.554 6.059 0 3.684 2.127 5.951 5.672 5.951 2.846 0 4.909-1.515 5.253-3.77h-2.88zm-2.46-5.92c1.397 0 2.353 1.01 2.418 2.482h-4.888c.108-1.44 1.096-2.481 2.47-2.481zm10.475 9.626c1.439 0 2.868-.72 3.512-1.945h.065V16h3.029V8.083c0-2.32-1.923-3.846-4.877-3.846-3.05 0-4.952 1.536-5.07 3.77h2.868c.15-.848.891-1.428 2.062-1.428 1.182 0 1.934.623 1.934 1.697v.763l-2.9.172c-2.869.172-4.48 1.386-4.48 3.48 0 2.074 1.665 3.492 3.857 3.492zm1.03-2.267c-1.063 0-1.772-.537-1.772-1.396 0-.817.666-1.343 1.837-1.43l2.428-.15v.838c0 1.246-1.128 2.138-2.492 2.138zm18.07-5.145c-.14-2.61-2.117-4.534-5.232-4.534-3.449 0-5.65 2.3-5.65 5.994 0 3.76 2.201 6.016 5.671 6.016 3.03 0 5.06-1.75 5.22-4.469h-2.921c-.193 1.257-1.01 2.01-2.267 2.01-1.557 0-2.524-1.29-2.524-3.557 0-2.223.967-3.534 2.514-3.534 1.289 0 2.094.86 2.277 2.074h2.911zm2.362-6.94v2.653h-1.622v2.364h1.622v6.048c0 2.245 1.053 3.147 3.76 3.147.634 0 1.171-.054 1.493-.129v-2.31a5.08 5.08 0 0 1-.762.054c-.924 0-1.354-.419-1.354-1.3v-5.51h2.127V4.484h-2.127V1.831H51.11zM61.605 16V9.898h6.306V7.331h-6.306V3.174h6.908V.499H58.36V16h3.245zm11.484.183c1.44 0 2.868-.72 3.513-1.945h.064V16h3.03V8.083c0-2.32-1.924-3.846-4.878-3.846-3.05 0-4.952 1.536-5.07 3.77h2.868c.15-.848.892-1.428 2.063-1.428 1.181 0 1.933.623 1.933 1.697v.763l-2.9.172c-2.868.172-4.48 1.386-4.48 3.48 0 2.074 1.665 3.492 3.857 3.492zm1.031-2.267c-1.063 0-1.772-.537-1.772-1.396 0-.817.666-1.343 1.837-1.43l2.427-.15v.838c0 1.246-1.128 2.138-2.492 2.138zm7.412-6.048c0 1.73 1.128 2.847 3.352 3.32l1.966.408c1.128.258 1.525.601 1.525 1.214 0 .752-.73 1.235-1.912 1.235-1.246 0-1.966-.537-2.16-1.547h-3.06c.203 2.267 2.04 3.75 5.22 3.75 2.965 0 5.038-1.494 5.038-3.76 0-1.687-.988-2.633-3.395-3.137l-1.965-.42c-1.16-.246-1.59-.644-1.59-1.235 0-.762.72-1.257 1.805-1.257 1.16 0 1.858.634 1.955 1.569h2.89c-.065-2.256-1.891-3.77-4.845-3.77-2.933 0-4.824 1.439-4.824 3.63zm12.354-6.037v2.653h-1.622v2.364h1.622v6.048c0 2.245 1.053 3.147 3.76 3.147.633 0 1.17-.054 1.493-.129v-2.31a5.08 5.08 0 0 1-.763.054c-.924 0-1.354-.419-1.354-1.3v-5.51h2.127V4.484h-2.127V1.831h-3.136zm14.437 10.646c-.29.88-1.171 1.45-2.32 1.45-1.601 0-2.643-1.128-2.643-2.772v-.193h7.939v-.956c0-3.502-2.116-5.769-5.468-5.769-3.405 0-5.554 2.385-5.554 6.059 0 3.684 2.127 5.951 5.672 5.951 2.847 0 4.909-1.515 5.253-3.77h-2.879zm-2.46-5.92c1.397 0 2.353 1.01 2.417 2.482h-4.887c.107-1.44 1.095-2.481 2.47-2.481zM112.921 16h3.137V9.565c0-1.622.902-2.567 2.449-2.567.451 0 .881.075 1.139.183V4.42a3.2 3.2 0 0 0-.892-.118c-1.354 0-2.331.795-2.739 2.256h-.065V4.484h-3.029V16zm8.873.129c.956 0 1.729-.774 1.729-1.73 0-.966-.773-1.73-1.729-1.73-.967 0-1.73.764-1.73 1.73 0 .957.763 1.73 1.73 1.73z" fill="#000"/></svg>