<svg width="34" height="27" fill="none" xmlns="http://www.w3.org/2000/svg"><path opacity=".1" d="M18.25 24.139a18.457 18.457 0 0 0 4.2-1.758 15.888 15.888 0 0 0 3.368-2.637 12.279 12.279 0 0 0 2.246-3.174c.554-1.139.83-2.31.83-3.515 0-.716-.146-1.351-.439-1.905-.293-.52-.635-.78-1.025-.78-.424 0-.765.08-1.026.243-.293.163-.586.342-.879.537a6.925 6.925 0 0 1-.976.537c-.39.163-.895.245-1.514.245a3.801 3.801 0 0 1-1.806-.44 4.282 4.282 0 0 1-1.514-1.123 5.316 5.316 0 0 1-1.074-1.758 6.12 6.12 0 0 1-.391-2.197c0-.846.179-1.628.537-2.344a5.786 5.786 0 0 1 1.465-1.855 7.087 7.087 0 0 1 2.1-1.27 7.174 7.174 0 0 1 2.539-.44 7.43 7.43 0 0 1 3.369.782 9.357 9.357 0 0 1 2.734 2.197 11.26 11.26 0 0 1 1.856 3.223 11.35 11.35 0 0 1 .683 3.955c0 2.214-.407 4.248-1.22 6.104-.847 1.855-1.954 3.466-3.32 4.834a15.828 15.828 0 0 1-4.884 3.32 16.523 16.523 0 0 1-5.859 1.465v-2.246zm-17.627 0a18.713 18.713 0 0 0 4.15-1.758c1.303-.749 2.426-1.628 3.37-2.637a12.279 12.279 0 0 0 2.246-3.174c.553-1.139.83-2.31.83-3.515 0-.716-.13-1.351-.39-1.905-.294-.52-.652-.78-1.075-.78-.423 0-.765.08-1.025.243a7.24 7.24 0 0 0-.83.537 6.924 6.924 0 0 1-.977.537c-.39.163-.895.245-1.514.245a3.801 3.801 0 0 1-1.806-.44 4.282 4.282 0 0 1-1.514-1.123 5.315 5.315 0 0 1-1.074-1.758 6.12 6.12 0 0 1-.39-2.197c0-.846.178-1.628.536-2.344a5.234 5.234 0 0 1 1.416-1.855 7.088 7.088 0 0 1 2.1-1.27 7.582 7.582 0 0 1 2.588-.44 7.43 7.43 0 0 1 3.369.782 9.357 9.357 0 0 1 2.734 2.197c.781.944 1.4 2.019 1.856 3.223a11.35 11.35 0 0 1 .683 3.955c0 2.214-.407 4.248-1.22 6.104-.847 1.855-1.97 3.466-3.37 4.834a16.001 16.001 0 0 1-4.834 3.32 16.522 16.522 0 0 1-5.859 1.465v-2.246z" fill="#000"/></svg>