<svg width="124" height="17" viewBox="0 0 124 17" fill="none" xmlns="http://www.w3.org/2000/svg">
<path d="M3.5332 10.3281H6.13281L9.02246 16H12.6963L9.43066 9.84473C11.2139 9.14648 12.2451 7.42773 12.2451 5.44043C12.2451 2.37891 10.2041 0.499023 6.6377 0.499023H0.289062V16H3.5332V10.3281ZM3.5332 3.03418H6.29395C7.90527 3.03418 8.91504 4.00098 8.91504 5.50488C8.91504 7.04102 7.95898 7.97559 6.32617 7.97559H3.5332V3.03418ZM21.6338 12.4766C21.3438 13.3574 20.4629 13.9268 19.3135 13.9268C17.7129 13.9268 16.6709 12.7988 16.6709 11.1553V10.9619H24.6094V10.0059C24.6094 6.50391 22.4932 4.2373 19.1416 4.2373C15.7363 4.2373 13.5879 6.62207 13.5879 10.2959C13.5879 13.9805 15.7148 16.2471 19.2598 16.2471C22.1064 16.2471 24.1689 14.7324 24.5127 12.4766H21.6338ZM19.1738 6.55762C20.5703 6.55762 21.5264 7.56738 21.5908 9.03906H16.7031C16.8105 7.59961 17.7988 6.55762 19.1738 6.55762ZM29.6475 16.1826C31.0869 16.1826 32.5156 15.4629 33.1602 14.2383H33.2246V16H36.2539V8.08301C36.2539 5.7627 34.3311 4.2373 31.377 4.2373C28.3262 4.2373 26.4248 5.77344 26.3066 8.00781H29.1748C29.3252 7.15918 30.0664 6.5791 31.2373 6.5791C32.4189 6.5791 33.1709 7.20215 33.1709 8.27637V9.03906L30.2705 9.21094C27.4023 9.38281 25.791 10.5967 25.791 12.6914C25.791 14.7646 27.4561 16.1826 29.6475 16.1826ZM30.6787 13.916C29.6152 13.916 28.9062 13.3789 28.9062 12.5195C28.9062 11.7031 29.5723 11.1768 30.7432 11.0908L33.1709 10.9404V11.7783C33.1709 13.0244 32.043 13.916 30.6787 13.916ZM48.7471 8.77051C48.6074 6.16016 46.6309 4.2373 43.5156 4.2373C40.0674 4.2373 37.8652 6.53613 37.8652 10.2314C37.8652 13.9912 40.0674 16.2471 43.5371 16.2471C46.5664 16.2471 48.5967 14.4961 48.7578 11.7783H45.8359C45.6426 13.0352 44.8262 13.7871 43.5693 13.7871C42.0117 13.7871 41.0449 12.498 41.0449 10.2314C41.0449 8.00781 42.0117 6.69727 43.5586 6.69727C44.8477 6.69727 45.6533 7.55664 45.8359 8.77051H48.7471ZM51.1104 1.83105V4.48438H49.4883V6.84766H51.1104V12.8955C51.1104 15.1406 52.1631 16.043 54.8701 16.043C55.5039 16.043 56.041 15.9893 56.3633 15.9141V13.6045C56.1699 13.6367 55.8799 13.6582 55.6006 13.6582C54.6768 13.6582 54.2471 13.2393 54.2471 12.3584V6.84766H56.374V4.48438H54.2471V1.83105H51.1104ZM61.6055 16V9.89844H67.9111V7.33105H61.6055V3.17383H68.5127V0.499023H58.3613V16H61.6055ZM73.0889 16.1826C74.5283 16.1826 75.957 15.4629 76.6016 14.2383H76.666V16H79.6953V8.08301C79.6953 5.7627 77.7725 4.2373 74.8184 4.2373C71.7676 4.2373 69.8662 5.77344 69.748 8.00781H72.6162C72.7666 7.15918 73.5078 6.5791 74.6787 6.5791C75.8604 6.5791 76.6123 7.20215 76.6123 8.27637V9.03906L73.7119 9.21094C70.8438 9.38281 69.2324 10.5967 69.2324 12.6914C69.2324 14.7646 70.8975 16.1826 73.0889 16.1826ZM74.1201 13.916C73.0566 13.916 72.3477 13.3789 72.3477 12.5195C72.3477 11.7031 73.0137 11.1768 74.1846 11.0908L76.6123 10.9404V11.7783C76.6123 13.0244 75.4844 13.916 74.1201 13.916ZM81.5322 7.86816C81.5322 9.59766 82.6602 10.7148 84.8838 11.1875L86.8496 11.5957C87.9775 11.8535 88.375 12.1973 88.375 12.8096C88.375 13.5615 87.6445 14.0449 86.4629 14.0449C85.2168 14.0449 84.4971 13.5078 84.3037 12.498H81.2422C81.4463 14.7646 83.2832 16.2471 86.4629 16.2471C89.4277 16.2471 91.501 14.7539 91.501 12.4873C91.501 10.8008 90.5127 9.85547 88.1064 9.35059L86.1406 8.93164C84.9805 8.68457 84.5508 8.28711 84.5508 7.69629C84.5508 6.93359 85.2705 6.43945 86.3555 6.43945C87.5156 6.43945 88.2139 7.07324 88.3105 8.00781H91.2002C91.1357 5.75195 89.3096 4.2373 86.3555 4.2373C83.4229 4.2373 81.5322 5.67676 81.5322 7.86816ZM93.8857 1.83105V4.48438H92.2637V6.84766H93.8857V12.8955C93.8857 15.1406 94.9385 16.043 97.6455 16.043C98.2793 16.043 98.8164 15.9893 99.1387 15.9141V13.6045C98.9453 13.6367 98.6553 13.6582 98.376 13.6582C97.4521 13.6582 97.0225 13.2393 97.0225 12.3584V6.84766H99.1494V4.48438H97.0225V1.83105H93.8857ZM108.323 12.4766C108.033 13.3574 107.152 13.9268 106.003 13.9268C104.402 13.9268 103.36 12.7988 103.36 11.1553V10.9619H111.299V10.0059C111.299 6.50391 109.183 4.2373 105.831 4.2373C102.426 4.2373 100.277 6.62207 100.277 10.2959C100.277 13.9805 102.404 16.2471 105.949 16.2471C108.796 16.2471 110.858 14.7324 111.202 12.4766H108.323ZM105.863 6.55762C107.26 6.55762 108.216 7.56738 108.28 9.03906H103.393C103.5 7.59961 104.488 6.55762 105.863 6.55762ZM112.921 16H116.058V9.56543C116.058 7.94336 116.96 6.99805 118.507 6.99805C118.958 6.99805 119.388 7.07324 119.646 7.18066V4.41992C119.431 4.35547 119.119 4.30176 118.754 4.30176C117.4 4.30176 116.423 5.09668 116.015 6.55762H115.95V4.48438H112.921V16ZM121.794 16.1289C122.75 16.1289 123.523 15.3555 123.523 14.3994C123.523 13.4326 122.75 12.6699 121.794 12.6699C120.827 12.6699 120.064 13.4326 120.064 14.3994C120.064 15.3555 120.827 16.1289 121.794 16.1289Z" fill="black"/>
</svg>
