<svg width="34" height="27" viewBox="0 0 34 27" fill="none" xmlns="http://www.w3.org/2000/svg">
<path opacity="0.1" d="M18.25 24.1387C19.7474 23.7155 21.1471 23.1296 22.4492 22.3809C23.7188 21.6322 24.8418 20.7533 25.8184 19.7441C26.7624 18.7676 27.5111 17.7096 28.0645 16.5703C28.6178 15.431 28.8945 14.2591 28.8945 13.0547C28.8945 12.3385 28.7481 11.7038 28.4551 11.1504C28.1621 10.6296 27.8203 10.3691 27.4297 10.3691C27.0065 10.3691 26.6647 10.4505 26.4043 10.6133C26.1113 10.776 25.8184 10.9551 25.5254 11.1504C25.2324 11.3457 24.9069 11.5247 24.5488 11.6875C24.1582 11.8503 23.6537 11.9316 23.0352 11.9316C22.3841 11.9316 21.7819 11.7852 21.2285 11.4922C20.6426 11.2318 20.138 10.8574 19.7148 10.3691C19.2591 9.88086 18.901 9.29492 18.6406 8.61133C18.3802 7.92773 18.25 7.19531 18.25 6.41406C18.25 5.56771 18.429 4.78646 18.7871 4.07031C19.1452 3.35417 19.6335 2.73568 20.252 2.21484C20.8379 1.69401 21.5378 1.27083 22.3516 0.945311C23.1328 0.652343 23.9792 0.505858 24.8906 0.505858C26.0951 0.505858 27.2181 0.766275 28.2598 1.28711C29.3014 1.84049 30.2129 2.57292 30.9941 3.48437C31.7754 4.42838 32.3939 5.5026 32.8496 6.70703C33.3053 7.94401 33.5332 9.26237 33.5332 10.6621C33.5332 12.8757 33.1263 14.9102 32.3125 16.7656C31.4661 18.6211 30.3594 20.2324 28.9922 21.5996C27.5925 22.9993 25.9648 24.1061 24.1094 24.9199C22.2539 25.7663 20.3008 26.2546 18.25 26.3848L18.25 24.1387ZM0.62305 24.1387C2.08789 23.7155 3.47136 23.1296 4.77344 22.3809C6.07552 21.6322 7.19857 20.7533 8.14258 19.7441C9.08659 18.7676 9.83529 17.7096 10.3887 16.5703C10.9421 15.431 11.2188 14.2591 11.2188 13.0547C11.2188 12.3385 11.0885 11.7038 10.8281 11.1504C10.5352 10.6296 10.1771 10.3691 9.75391 10.3691C9.33073 10.3691 8.98894 10.4505 8.72852 10.6133C8.43555 10.776 8.15886 10.9551 7.89844 11.1504C7.60547 11.3457 7.27995 11.5247 6.92188 11.6875C6.53125 11.8503 6.0267 11.9316 5.40821 11.9316C4.75717 11.9316 4.15495 11.7852 3.60157 11.4922C3.01563 11.2318 2.51107 10.8574 2.0879 10.3691C1.63217 9.88086 1.27409 9.29492 1.01368 8.61132C0.75326 7.92773 0.623052 7.19531 0.623052 6.41406C0.623052 5.56771 0.802088 4.78646 1.16016 4.07031C1.48568 3.35416 1.95769 2.73567 2.57618 2.21484C3.16211 1.69401 3.86198 1.27083 4.67579 0.94531C5.48959 0.652341 6.35222 0.505857 7.26368 0.505857C8.4681 0.505857 9.59115 0.766274 10.6328 1.28711C11.6745 1.84049 12.5859 2.57291 13.3672 3.48437C14.1484 4.42838 14.7669 5.5026 15.2227 6.70703C15.6784 7.94401 15.9063 9.26237 15.9063 10.6621C15.9063 12.8756 15.4994 14.9102 14.6856 16.7656C13.8392 18.6211 12.7161 20.2324 11.3164 21.5996C9.91667 22.9993 8.30534 24.1061 6.48243 24.9199C4.62696 25.7663 2.67383 26.2546 0.62305 26.3848L0.62305 24.1387Z" fill="black"/>
</svg>

